<svg xmlns="http://www.w3.org/2000/svg" viewBox="0 0 1200 500">
<defs>
<linearGradient id="g" x1="0" x2="1"><stop stop-color="#22d3ee"/><stop offset=".5" stop-color="#a78bfa"/><stop offset="1" stop-color="#f472b6"/></linearGradient>
<pattern id="d" width="20" height="20" patternUnits="userSpaceOnUse"><circle cx="2" cy="2" r="1" fill="#fff" opacity=".06"/></pattern>
</defs>
<rect width="1200" height="500" rx="28" fill="#0d0e16"/><rect width="1200" height="500" rx="28" fill="url(#d)"/>
<g font-family="Arial,sans-serif">
<rect x="28" y="28" width="555" height="444" rx="22" fill="#111522" stroke="url(#g)" stroke-opacity=".45"/>
<text x="58" y="72" fill="#22d3ee" font-family="monospace" font-size="12">01 // WHAT I BUILD</text>
<text x="58" y="108" fill="#f8fafc" font-size="30" font-weight="700">Developer Workshop</text>
<rect x="58" y="132" width="495" height="80" rx="14" fill="#0d0e16" stroke="#334155"/>
<text x="78" y="160" fill="#94a3b8" font-family="monospace" font-size="12">~/projects</text>
<text x="78" y="188" fill="#cbd5e1" font-family="monospace" font-size="14">full-stack • AI • automation</text>
<g transform="translate(58 238)" fill="#cbd5e1">
<text y="0" font-family="monospace" font-size="13">FULL STACK WEB APPS</text><rect y="12" width="495" height="5" rx="2" fill="#1e293b"/><rect y="12" width="420" height="5" rx="2" fill="#22d3ee"><animate attributeName="width" values="250;420;250" dur="3s" repeatCount="indefinite"/></rect>
<text y="54" font-family="monospace" font-size="13">AI-POWERED PROJECTS</text><rect y="66" width="495" height="5" rx="2" fill="#1e293b"/><rect y="66" width="350" height="5" rx="2" fill="#a78bfa"><animate attributeName="width" values="180;350;180" dur="3.4s" repeatCount="indefinite"/></rect>
<text y="108" font-family="monospace" font-size="13">REAL-WORLD PROBLEM SOLVING</text><rect y="120" width="495" height="5" rx="2" fill="#1e293b"/><rect y="120" width="390" height="5" rx="2" fill="#f472b6"><animate attributeName="width" values="220;390;220" dur="3.7s" repeatCount="indefinite"/></rect>
</g>
<rect x="617" y="28" width="555" height="444" rx="22" fill="#111522" stroke="url(#g)" stroke-opacity=".45"/>
<text x="647" y="72" fill="#f472b6" font-family="monospace" font-size="12">02 // DEVELOPER INTERESTS</text>
<text x="647" y="108" fill="#f8fafc" font-size="30" font-weight="700">Currently Exploring</text>
<g transform="translate(647 140)">
<rect width="495" height="58" rx="14" fill="#0d0e16" stroke="#22d3ee" stroke-opacity=".3"/>
<text x="22" y="36" fill="#22d3ee" font-size="18">Artificial Intelligence</text>
<rect x="22" y="48" width="451" height="2" fill="#1e293b"/><rect x="22" y="48" width="190" height="2" fill="#22d3ee"><animate attributeName="width" values="80;400;80" dur="4s" repeatCount="indefinite"/></rect>
<text y="88" x="22" fill="#a78bfa" font-size="18">Machine Learning</text>
<text y="140" x="22" fill="#f472b6" font-size="18">Blockchain &amp; Cloud</text>
<text y="192" x="22" fill="#22d3ee" font-size="18">Open Source</text>
<text y="244" x="22" fill="#a78bfa" font-size="18">Building Side Projects</text>
</g>
<text x="647" y="438" fill="#64748b" font-family="monospace" font-size="11">INTERESTS • LEARNING • BUILDING • ITERATING</text>
</g></svg>