<svg xmlns="http://www.w3.org/2000/svg" viewBox="0 0 1200 500">
<defs><linearGradient id="g"><stop stop-color="#22d3ee"/><stop offset=".5" stop-color="#a78bfa"/><stop offset="1" stop-color="#f472b6"/></linearGradient></defs>
<rect width="1200" height="500" rx="28" fill="#0d0e16"/>
<text x="60" y="70" fill="#f472b6" font-family="monospace" font-size="12">08 // CONNECT</text>
<text x="60" y="112" fill="#f8fafc" font-family="Arial" font-size="36" font-weight="700">Let's Connect</text>
<g transform="translate(60 150)">
<rect width="320" height="275" rx="24" fill="#111522" stroke="url(#g)"/>
<circle cx="160" cy="100" r="64" fill="#1e293b" stroke="#22d3ee" stroke-width="2"/>
<text x="160" y="110" text-anchor="middle" fill="#f8fafc" font-family="Arial" font-size="36" font-weight="700">SK</text>
<text x="160" y="190" text-anchor="middle" fill="#22d3ee" font-family="monospace" font-size="13">BUILD • LEARN • GROW</text>
<text x="160" y="218" text-anchor="middle" fill="#94a3b8" font-family="monospace" font-size="11">Shekhar Kumar</text>
</g>
<g transform="translate(430 150)" font-family="monospace" font-size="13">
<g><rect width="320" height="58" rx="14" fill="#111522" stroke="#334155"/><text x="22" y="36" fill="#f8fafc">GitHub</text><text x="270" y="36" fill="#22d3ee">→</text></g>
<g transform="translate(340)"><rect width="320" height="58" rx="14" fill="#111522" stroke="#334155"/><text x="22" y="36" fill="#f8fafc">LinkedIn</text><text x="270" y="36" fill="#a78bfa">→</text></g>
<g transform="translate(0 72)"><rect width="320" height="58" rx="14" fill="#111522" stroke="#334155"/><text x="22" y="36" fill="#f8fafc">Portfolio</text><text x="270" y="36" fill="#f472b6">→</text></g>
<g transform="translate(340 72)"><rect width="320" height="58" rx="14" fill="#111522" stroke="#334155"/><text x="22" y="36" fill="#f8fafc">Email</text><text x="270" y="36" fill="#22d3ee">→</text></g>
<g transform="translate(0 144)"><rect width="320" height="58" rx="14" fill="#111522" stroke="#334155"/><text x="22" y="36" fill="#f8fafc">LeetCode</text><text x="270" y="36" fill="#a78bfa">→</text></g>
<g transform="translate(340 144)"><rect width="320" height="58" rx="14" fill="#111522" stroke="#334155"/><text x="22" y="36" fill="#f8fafc">HackerRank • CodeChef</text><text x="270" y="36" fill="#f472b6">→</text></g>
</g>
</svg>